<?xml version="1.0" encoding="utf-8"?>
<!-- Generator: Adobe Illustrator 18.1.1, SVG Export Plug-In . SVG Version: 6.00 Build 0)  -->
<svg version="1.1" id="Layer_1" xmlns="http://www.w3.org/2000/svg" xmlns:xlink="http://www.w3.org/1999/xlink" x="0px" y="0px"
	 viewBox="0 0 256 256" enable-background="new 0 0 256 256" xml:space="preserve">
<g>
	<defs>
		<filter id="Adobe_OpacityMaskFilter" filterUnits="userSpaceOnUse" x="67.2" y="102.5" width="121.6" height="92.4">
			
				<feColorMatrix  type="matrix" values="-1 0 0 0 1  0 -1 0 0 1  0 0 -1 0 1  0 0 0 1 0" color-interpolation-filters="sRGB" result="source"/>
			<feFlood  style="flood-color:white;flood-opacity:1" result="back"/>
			<feBlend  in="source" in2="back" mode="normal"/>
		</filter>
	</defs>
	<mask maskUnits="userSpaceOnUse" x="67.2" y="102.5" width="121.6" height="92.4" id="SVGID_1_">
		<g filter="url(#Adobe_OpacityMaskFilter)">
			<g>
				<g>
					<path fill="#FFFFFF" d="M142.6,139c0-7.5-6.5-13.5-14.4-13.5c-8,0-14.4,6.1-14.4,13.5c0,5.5,3.5,10.2,8.5,12.3l-5.8,16.5v3.9
						h23.4v-3.9l-5.8-16.5C139.1,149.3,142.6,144.5,142.6,139z"/>
				</g>
			</g>
		</g>
	</mask>
	<g opacity="0.8" mask="url(#SVGID_1_)">
		<path fill="#FF0000" d="M67.2,183.4c0,6.3,5.1,11.4,11.4,11.4h98.8c6.3,0,11.4-5.1,11.4-11.4v-69.5c0-6.3-5.1-11.4-11.4-11.4H78.6
			c-6.3,0-11.4,5.1-11.4,11.4V183.4z"/>
	</g>
	<path opacity="0.5" fill="#FF0000" d="M154,96.1c0-23.1-11-34.7-26-34.8h0h0c-15,0-26,11.7-26,34.8l-17.9,0
		C86.1,61.3,104,43.7,128,43.6h0l0,0c23.9,0,41.9,17.6,43.8,52.5L154,96.1z"/>
	<path opacity="0.4" fill="#231F20" d="M256,143.3l-49.4-56.9l-49.4,56.9h31.8c-6.8,27.3-31.5,47.5-60.9,47.5
		c-20.4,0-38.5-9.7-49.9-24.8l-24.6,28c18.2,20.6,44.9,33.5,74.5,33.5c49.8,0,91-36.6,98.4-84.3H256z"/>
	<path opacity="0.2" fill="#231F20" d="M202.9,62.2c-18.2-20.7-45-33.8-74.7-33.8C78,28.4,36.4,65.6,29.6,114L0,114l49.4,56.9
		L98.7,114H67.2l-0.1,0c6.4-27.9,31.3-48.7,61.2-48.7c20.3,0,38.4,9.7,49.9,24.7L202.9,62.2z"/>
</g>
</svg>
